<svg width="19" height="19" viewBox="0 0 19 19" fill="white" xmlns="http://www.w3.org/2000/svg">
<g clip-path="url(#clip0_1_570)">
<path d="M1.76679 17.1267H15.7799C15.9863 17.1267 16.1844 17.0447 16.3304 16.8987C16.4764 16.7527 16.5584 16.5547 16.5584 16.3482V8.56318C16.5584 8.35671 16.4764 8.1587 16.3304 8.0127C16.1844 7.8667 15.9863 7.78468 15.7799 7.78468C15.5734 7.78468 15.3754 7.8667 15.2294 8.0127C15.0834 8.1587 15.0014 8.35671 15.0014 8.56318V15.5697H2.54529V3.11365H9.55183C9.75831 3.11365 9.95632 3.03163 10.1023 2.88563C10.2483 2.73963 10.3303 2.54162 10.3303 2.33515C10.3303 2.12867 10.2483 1.93066 10.1023 1.78466C9.95632 1.63866 9.75831 1.55664 9.55183 1.55664H1.76679C1.56031 1.55664 1.3623 1.63866 1.2163 1.78466C1.0703 1.93066 0.988281 2.12867 0.988281 2.33515V16.3482C0.988281 16.5547 1.0703 16.7527 1.2163 16.8987C1.3623 17.0447 1.56031 17.1267 1.76679 17.1267Z" fill="white"/>
<path d="M8.77734 6.48711V8.56339C8.77734 8.76986 8.85936 8.96787 9.00536 9.11387C9.15136 9.25987 9.34938 9.34189 9.55585 9.34189H11.6313C11.8378 9.34185 12.0358 9.2598 12.1817 9.11379L17.8913 3.40501C17.9637 3.33271 18.0211 3.24685 18.0603 3.15234C18.0995 3.05783 18.1196 2.95653 18.1196 2.85422C18.1196 2.75191 18.0995 2.65061 18.0603 2.5561C18.0211 2.46159 17.9637 2.37573 17.8913 2.30343L15.815 0.227936C15.669 0.0819886 15.4711 0 15.2646 0C15.0582 0 14.8602 0.0819886 14.7142 0.227936L9.00545 5.93671C8.85944 6.08268 8.77739 6.28066 8.77734 6.48711ZM10.3344 6.81019L15.2646 1.87914L16.2401 2.85461L11.309 7.78488H10.3344V6.81019Z" fill="white"/>
</g>
<defs>
<clipPath id="clip0_1_570">
<rect width="18.6841" height="18.6841" fill="white" transform="translate(0.212891)"/>
</clipPath>
</defs>
</svg>
